<?xml version="1.0" encoding="UTF-8"?>
<svg xmlns="http://www.w3.org/2000/svg" xmlns:xlink="http://www.w3.org/1999/xlink" viewBox="0 0 150 150" width="150px" height="150px">
<g id="surface55465647">
<path style=" stroke:none;fill-rule:nonzero;fill:rgb(98.039216%,3.137255%,3.137255%);fill-opacity:1;" d="M 75 6 C 36.929688 6 6 36.929688 6 75 C 6 113.070312 36.929688 144 75 144 C 113.070312 144 144 113.070312 144 75 C 144 36.929688 113.070312 6 75 6 Z M 75 12 C 109.828125 12 138 40.171875 138 75 C 138 109.828125 109.828125 138 75 138 C 40.171875 138 12 109.828125 12 75 C 12 40.171875 40.171875 12 75 12 Z M 98.96875 47.960938 C 98.179688 47.976562 97.425781 48.308594 96.878906 48.878906 L 75 70.757812 L 53.121094 48.878906 C 52.554688 48.296875 51.78125 47.972656 50.96875 47.96875 C 49.75 47.972656 48.652344 48.710938 48.191406 49.84375 C 47.730469 50.972656 48.003906 52.269531 48.878906 53.121094 L 70.757812 75 L 48.878906 96.878906 C 48.09375 97.632812 47.78125 98.75 48.054688 99.800781 C 48.328125 100.851562 49.148438 101.671875 50.199219 101.945312 C 51.25 102.21875 52.367188 101.90625 53.121094 101.121094 L 75 79.242188 L 96.878906 101.121094 C 97.632812 101.90625 98.75 102.21875 99.800781 101.945312 C 100.851562 101.671875 101.671875 100.851562 101.945312 99.800781 C 102.21875 98.75 101.90625 97.632812 101.121094 96.878906 L 79.242188 75 L 101.121094 53.121094 C 102.011719 52.261719 102.285156 50.945312 101.8125 49.804688 C 101.335938 48.664062 100.207031 47.929688 98.96875 47.960938 Z M 98.96875 47.960938 "/>
</g>
</svg>
